<?xml version="1.0" encoding="iso-8859-1"?>
<!-- Generator: Adobe Illustrator 16.0.0, SVG Export Plug-In . SVG Version: 6.00 Build 0)  -->
<!DOCTYPE svg PUBLIC "-//W3C//DTD SVG 1.1//EN" "http://www.w3.org/Graphics/SVG/1.1/DTD/svg11.dtd">
<svg version="1.1" id="icon_1_" xmlns="http://www.w3.org/2000/svg" xmlns:xlink="http://www.w3.org/1999/xlink" x="0px" y="0px"
	 width="25px" height="25px" viewBox="0 0 25 25" style="enable-background:new 0 0 25 25;" xml:space="preserve">
<g id="icon">
	<g>
		<path style="fill-rule:evenodd;clip-rule:evenodd;fill:#8F3F96;" d="M16.821,11.117h-9.25c-0.308,0-0.557,0.258-0.557,0.576
			s0.25,0.576,0.557,0.576h9.25c0.308,0,0.558-0.258,0.558-0.576S17.129,11.117,16.821,11.117z M18.18,0H3.56
			C3.099,0,3.724,0.387,3.724,0.864v2.534H3.557C3.25,3.398,3,3.656,3,3.975s0.25,0.576,0.557,0.576h0.167v3.11H3.557
			C3.25,7.661,3,7.919,3,8.237s0.25,0.576,0.557,0.576h0.167v3.11H3.557C3.25,11.924,3,12.182,3,12.5s0.25,0.576,0.557,0.576h0.167
			v3.11H3.557C3.25,16.187,3,16.444,3,16.763s0.25,0.576,0.557,0.576h0.167v3.11H3.557C3.25,20.449,3,20.707,3,21.025
			s0.25,0.576,0.557,0.576h0.167v2.534C3.724,24.613,3.099,25,3.56,25h14.62c1.555,0,2.82-1.308,2.82-2.916V2.915
			C21,1.308,19.734,0,18.18,0z M19.328,22.084c0,0.655-0.516,1.188-1.148,1.188H4.396v-1.67h0.167c0.308,0,0.557-0.258,0.557-0.576
			s-0.25-0.576-0.557-0.576H4.396v-3.11h0.167c0.308,0,0.557-0.258,0.557-0.576s-0.25-0.576-0.557-0.576H4.396v-3.11h0.167
			c0.308,0,0.557-0.258,0.557-0.576s-0.25-0.576-0.557-0.576H4.396v-3.11h0.167c0.308,0,0.557-0.258,0.557-0.576
			s-0.25-0.576-0.557-0.576H4.396v-3.11h0.167c0.308,0,0.557-0.258,0.557-0.576s-0.25-0.576-0.557-0.576H4.396V1.728H18.18
			c0.633,0,1.148,0.533,1.148,1.188V22.084z M16.821,6.048h-9.25c-0.308,0-0.557,0.259-0.557,0.576V9.62
			c0,0.317,0.25,0.575,0.557,0.575h9.25c0.308,0,0.558-0.258,0.558-0.575V6.624C17.379,6.307,17.129,6.048,16.821,6.048z
			 M16.264,9.044H8.129V7.2h8.135V9.044z"/>
	</g>
</g>
</svg>
