<?xml version="1.0" encoding="iso-8859-1"?>
<!-- Generator: Adobe Illustrator 16.0.0, SVG Export Plug-In . SVG Version: 6.00 Build 0)  -->
<!DOCTYPE svg PUBLIC "-//W3C//DTD SVG 1.1//EN" "http://www.w3.org/Graphics/SVG/1.1/DTD/svg11.dtd">
<svg version="1.1" id="icon_1_" xmlns="http://www.w3.org/2000/svg" xmlns:xlink="http://www.w3.org/1999/xlink" x="0px" y="0px"
	 width="25px" height="25px" viewBox="0 0 25 25" style="enable-background:new 0 0 25 25;" xml:space="preserve">
<g id="icon">
	<g>
		<path style="fill-rule:evenodd;clip-rule:evenodd;fill:#8F3F96;" d="M22.07,4H3.935C2.316,4,1,5.297,1,6.893v12.215
			C1,20.703,2.316,22,3.935,22h18.13C23.684,22,25,20.703,25,19.107V6.897C25.005,5.302,23.689,4,22.07,4z M22.07,20.679H3.935
			c-0.879,0-1.594-0.705-1.594-1.571V6.897c0-0.866,0.715-1.571,1.594-1.571h18.13c0.879,0,1.595,0.705,1.595,1.571v12.21h0.005
			C23.664,19.974,22.949,20.679,22.07,20.679z M16.136,12.849l5.87-5.188c0.272-0.244,0.297-0.66,0.049-0.935
			c-0.248-0.269-0.67-0.293-0.948-0.049l-8.095,7.16l-1.579-1.39c-0.005-0.005-0.01-0.01-0.01-0.015
			c-0.035-0.034-0.07-0.064-0.109-0.094L4.888,6.672c-0.278-0.244-0.7-0.22-0.948,0.054C3.691,7,3.716,7.416,3.994,7.66l5.939,5.232
			l-5.915,5.456c-0.268,0.25-0.283,0.666-0.03,0.936c0.134,0.137,0.313,0.21,0.492,0.21c0.164,0,0.328-0.059,0.457-0.176
			l6.003-5.535l1.629,1.434c0.129,0.112,0.288,0.166,0.447,0.166c0.158,0,0.322-0.059,0.447-0.171l1.673-1.478l5.969,5.589
			c0.129,0.122,0.298,0.181,0.462,0.181c0.179,0,0.353-0.068,0.486-0.206c0.254-0.264,0.244-0.685-0.024-0.935L16.136,12.849z"/>
	</g>
</g>
</svg>
