<?xml version="1.0" encoding="iso-8859-1"?>
<!-- Generator: Adobe Illustrator 16.0.0, SVG Export Plug-In . SVG Version: 6.00 Build 0)  -->
<!DOCTYPE svg PUBLIC "-//W3C//DTD SVG 1.1//EN" "http://www.w3.org/Graphics/SVG/1.1/DTD/svg11.dtd">
<svg version="1.1" id="icon_1_" xmlns="http://www.w3.org/2000/svg" xmlns:xlink="http://www.w3.org/1999/xlink" x="0px" y="0px"
	 width="25px" height="25px" viewBox="0 0 25 25" style="enable-background:new 0 0 25 25;" xml:space="preserve">
<g id="icon">
	<g>
		<path style="fill-rule:evenodd;clip-rule:evenodd;fill:#8F3F96;" d="M20.135,9.186h-1.699V5.644C18.436,3.083,16.364,1,13.818,1
			h-3.637C7.636,1,5.565,3.083,5.565,5.644v3.542H3.866C3.388,9.186,3,9.575,3,10.056v8.507C3,22.112,5.871,25,9.399,25h5.201
			C18.129,25,21,22.112,21,18.563v-8.507C21,9.575,20.612,9.186,20.135,9.186z M7.296,5.644c0-1.601,1.294-2.902,2.885-2.902h3.637
			c1.592,0,2.885,1.302,2.885,2.902v3.542H7.296V5.644z M19.269,18.563c0,2.589-2.094,4.695-4.668,4.695H9.399
			c-2.574,0-4.668-2.106-4.668-4.695v-7.636h14.537V18.563z M11.134,20.367c0,0.48,0.388,0.871,0.866,0.871s0.866-0.391,0.866-0.871
			v-2.486c0.103-0.144,0.165-0.319,0.165-0.51c0-0.48-0.388-0.871-0.866-0.871h-0.329c-0.478,0-0.866,0.391-0.866,0.871
			c0,0.19,0.062,0.366,0.165,0.51V20.367z"/>
	</g>
</g>
</svg>
